<?xml version="1.0" encoding="UTF-8" standalone="no"?>
<svg width="16px" height="16px" viewBox="0 0 16 16" version="1.1" xmlns="http://www.w3.org/2000/svg" xmlns:xlink="http://www.w3.org/1999/xlink" xmlns:sketch="http://www.bohemiancoding.com/sketch/ns">
    <title>icon</title>
    <description>Created with Sketch (http://www.bohemiancoding.com/sketch)</description>
    <defs></defs>
    <g id="Page 1" stroke="none" stroke-width="1" fill="none" fill-rule="evenodd">
        <g id="Plus" fill="#FFFFFF">
            <path d="M1.00748397,6 C0.45106594,6 0,6.44266033 0,6.99895656 L0,8.00104344 C0,8.55275191 0.448920205,9 1.00748397,9 L13.992516,9 C14.5489341,9 15,8.55733967 15,8.00104344 L15,6.99895656 C15,6.44724809 14.5510798,6 13.992516,6 L1.00748397,6 Z M1.00748397,6" id="Rectangle 1"></path>
            <path d="M6.99895656,0 C6.44724809,0 6,0.448920205 6,1.00748397 L6,13.992516 C6,14.5489341 6.44266033,15 6.99895656,15 L8.00104344,15 C8.55275191,15 9,14.5510798 9,13.992516 L9,1.00748397 C9,0.45106594 8.55733967,0 8.00104344,0 L6.99895656,0 Z M6.99895656,0" id="Rectangle 2"></path>
        </g>
    </g>
</svg>