<?xml version="1.0" encoding="UTF-8" standalone="no"?>
<svg width="16px" height="16px" viewBox="0 0 16 16" version="1.1" xmlns="http://www.w3.org/2000/svg" xmlns:xlink="http://www.w3.org/1999/xlink" xmlns:sketch="http://www.bohemiancoding.com/sketch/ns">
    <title>icon</title>
    <description>Created with Sketch (http://www.bohemiancoding.com/sketch)</description>
    <defs></defs>
    <g id="Page 1" stroke="none" stroke-width="1" fill="none" fill-rule="evenodd">
        <g id="Open" fill="#FFFFFF">
            <path d="M1.00087166,7 L3,7 L3,12 L13,12 L13,7 L14.9991283,7 C15.5553691,7 16,7.4463856 16,7.99703014 L16,14.0029699 C16,14.5469637 15.5518945,15 14.9991283,15 L1.00087166,15 C0.444630861,15 0,14.5536144 0,14.0029699 L0,7.99703014 C0,7.45303631 0.448105505,7 1.00087166,7 Z M1.00087166,7" id="Package"></path>
            <path d="M7,5 L7,9 L9,9 L9,5 L7,5 Z M7,5" id="Rectangle 6"></path>
            <path d="M8,0 L12,5 L4,5 L8,0 Z M8,0" id="Triangle 1"></path>
        </g>
    </g>
</svg>