<?xml version="1.0" encoding="UTF-8" standalone="no"?>
<svg width="512px" height="512px" viewBox="0 0 512 512" version="1.1" xmlns="http://www.w3.org/2000/svg" xmlns:xlink="http://www.w3.org/1999/xlink" xmlns:sketch="http://www.bohemiancoding.com/sketch/ns">
    <title>icon</title>
    <description>Created with Sketch (http://www.bohemiancoding.com/sketch)</description>
    <defs></defs>
    <g id="Page 1" stroke="none" stroke-width="1" fill="none" fill-rule="evenodd">
        <g id="icon" fill="#000000">
            <g id="Cube">
                <path d="M24.0364694,61.9606659 C32.3290155,27.6074996 68.6558392,0 104.004608,0 L407.995392,0 C443.341674,0 479.069922,27.7522507 487.791112,61.9863868 C487.791112,61.9863868 504.573865,109.683483 510.192196,201.142857 L386.532008,201.142857 C365.061792,150.117835 314.543453,114.285714 255.644444,114.285714 C177.269098,114.285714 113.733333,177.733357 113.733333,256 C113.733333,334.266643 177.269098,397.714286 255.644444,397.714286 C314.543453,397.714286 365.061792,361.882165 386.532008,310.857143 L510.72269,310.857143 C505.805225,403.398995 488.370512,450.147139 488.370512,450.147139 C479.878837,484.448619 443.344161,512 407.995392,512 L104.004608,512 C68.6583256,512 32.7513805,484.293151 23.8097552,450.115021 C23.8097552,450.115021 1.91589885e-05,385.115751 0,258.231503 C7.90605969e-15,129.115749 24.0364694,61.9606659 24.0364694,61.9606659 Z M255.644444,310.857143 C225.305601,310.857143 200.711111,286.296765 200.711111,256 C200.711111,225.703235 225.305601,201.142857 255.644444,201.142857 C285.983288,201.142857 310.577778,225.703235 310.577778,256 C310.577778,286.296765 285.983288,310.857143 255.644444,310.857143 Z M255.644444,310.857143" id="Base copy"></path>
            </g>
        </g>
    </g>
</svg>