<?xml version="1.0" encoding="UTF-8" standalone="no"?>
<svg width="64px" height="64px" viewBox="0 0 64 64" version="1.1" xmlns="http://www.w3.org/2000/svg" xmlns:xlink="http://www.w3.org/1999/xlink" xmlns:sketch="http://www.bohemiancoding.com/sketch/ns">
    <title>icon</title>
    <description>Created with Sketch (http://www.bohemiancoding.com/sketch)</description>
    <defs></defs>
    <g id="Page-1" stroke="none" stroke-width="1" fill="none" fill-rule="evenodd" sketch:type="MSPage">
        <g id="icon" sketch:type="MSArtboardGroup">
            <g sketch:type="MSLayerGroup" transform="translate(0.000000, -1.000000)">
                <g id="red" transform="translate(0.000000, 37.000000)" fill="#808080" sketch:type="MSShapeGroup">
                    <path d="M1.31778195,3.38847392 C1.77241476,1.50978513 3.76400645,0 5.701977,0 L22.3680506,0 C24.3058848,0 26.26466,1.51770121 26.7427929,3.38988053 C26.7427929,3.38988053 27.6628951,5.99831546 27.970916,11 L21.1913362,11 C20.0142472,8.20956909 17.244616,6.25 14.0155207,6.25 C9.71864936,6.25 6.23534727,9.71979298 6.23534727,14 C6.23534727,18.280207 9.71864936,21.75 14.0155207,21.75 C17.244616,21.75 20.0142472,19.7904309 21.1913362,17 L28,17 C27.7304036,22.0608825 26.7745581,24.6174217 26.7745581,24.6174217 C26.3090082,26.4932838 24.3060211,28 22.3680506,28 L5.701977,28 C3.76414276,28 1.79557061,26.4847817 1.30535251,24.6156652 C1.30535251,24.6156652 1.05037761e-06,21.0610176 0,14.1220353 C4.33443972e-16,7.06101755 1.31778195,3.38847392 1.31778195,3.38847392 Z M14,17 C12.3431457,17 11,15.6568543 11,14 C11,12.3431457 12.3431457,11 14,11 C15.6568543,11 17,12.3431457 17,14 C17,15.6568543 15.6568543,17 14,17 Z" id="Base-copy"></path>
                </g>
                <g id="blue" transform="translate(48.000000, 49.000000) rotate(-342.000000) translate(-48.000000, -49.000000) translate(34.000000, 35.000000)" fill="#808080" sketch:type="MSShapeGroup">
                    <path d="M1.31778195,3.38847392 C1.77241476,1.50978513 3.76400645,0 5.701977,0 L22.3680506,0 C24.3058848,0 26.26466,1.51770121 26.7427929,3.38988053 C26.7427929,3.38988053 27.6628951,5.99831546 27.970916,11 L21.1913362,11 C20.0142472,8.20956909 17.244616,6.25 14.0155207,6.25 C9.71864936,6.25 6.23534727,9.71979298 6.23534727,14 C6.23534727,18.280207 9.71864936,21.75 14.0155207,21.75 C17.244616,21.75 20.0142472,19.7904309 21.1913362,17 L28,17 C27.7304036,22.0608825 26.7745581,24.6174217 26.7745581,24.6174217 C26.3090082,26.4932838 24.3060211,28 22.3680506,28 L5.701977,28 C3.76414276,28 1.79557061,26.4847817 1.30535251,24.6156652 C1.30535251,24.6156652 1.05037761e-06,21.0610176 0,14.1220353 C4.33443972e-16,7.06101755 1.31778195,3.38847392 1.31778195,3.38847392 Z M14,17 C12.3431457,17 11,15.6568543 11,14 C11,12.3431457 12.3431457,11 14,11 C15.6568543,11 17,12.3431457 17,14 C17,15.6568543 15.6568543,17 14,17 Z" id="Base-copy" transform="translate(14.000000, 14.000000) rotate(-180.000000) translate(-14.000000, -14.000000) "></path>
                </g>
                <g id="green" transform="translate(28.000000, 17.000000) rotate(-284.000000) translate(-28.000000, -17.000000) translate(14.000000, 3.000000)" fill="#808080" sketch:type="MSShapeGroup">
                    <path d="M1.31778195,3.38847392 C1.77241476,1.50978513 3.76400645,0 5.701977,0 L22.3680506,0 C24.3058848,0 26.26466,1.51770121 26.7427929,3.38988053 C26.7427929,3.38988053 27.6628951,5.99831546 27.970916,11 L21.1913362,11 C20.0142472,8.20956909 17.244616,6.25 14.0155207,6.25 C9.71864936,6.25 6.23534727,9.71979298 6.23534727,14 C6.23534727,18.280207 9.71864936,21.75 14.0155207,21.75 C17.244616,21.75 20.0142472,19.7904309 21.1913362,17 L28,17 C27.7304036,22.0608825 26.7745581,24.6174217 26.7745581,24.6174217 C26.3090082,26.4932838 24.3060211,28 22.3680506,28 L5.701977,28 C3.76414276,28 1.79557061,26.4847817 1.30535251,24.6156652 C1.30535251,24.6156652 1.05037761e-06,21.0610176 0,14.1220353 C4.33443972e-16,7.06101755 1.31778195,3.38847392 1.31778195,3.38847392 Z M14,17 C12.3431457,17 11,15.6568543 11,14 C11,12.3431457 12.3431457,11 14,11 C15.6568543,11 17,12.3431457 17,14 C17,15.6568543 15.6568543,17 14,17 Z" id="Base-copy"></path>
                </g>
            </g>
        </g>
    </g>
</svg>