<?xml version="1.0" encoding="UTF-8" standalone="no"?>
<svg width="20px" height="20px" viewBox="0 0 20 20" version="1.1" xmlns="http://www.w3.org/2000/svg" xmlns:xlink="http://www.w3.org/1999/xlink" xmlns:sketch="http://www.bohemiancoding.com/sketch/ns">
    <title>binding</title>
    <description>Created with Sketch (http://www.bohemiancoding.com/sketch)</description>
    <defs></defs>
    <g id="Page 1" fill="#D8D8D8" fill-rule="evenodd">
        <g id="Binding">
            <path d="M4,14 C1.79086089,14 0,12.2091391 0,10 C0,7.79086089 1.79086089,6 4,6 C6.20913911,6 8,7.79086089 8,10 C8,12.2091391 6.20913911,14 4,14 Z M4,12 C5.10456955,12 6,11.1045696 6,10 C6,8.89543045 5.10456955,8 4,8 C2.89543045,8 2,8.89543045 2,10 C2,11.1045696 2.89543045,12 4,12 Z M4,12" id="Oval 1" fill="#FFFFFF"></path>
            <path d="M16,14 C13.7908609,14 12,12.2091391 12,10 C12,7.79086089 13.7908609,6 16,6 C18.2091391,6 20,7.79086089 20,10 C20,12.2091391 18.2091391,14 16,14 Z M16,12 C17.1045696,12 18,11.1045696 18,10 C18,8.89543045 17.1045696,8 16,8 C14.8954304,8 14,8.89543045 14,10 C14,11.1045696 14.8954304,12 16,12 Z M16,12" id="Oval 1 copy" fill="#FFFFFF"></path>
            <path d="M7,8 L7,12 L13,12 L13,8 L7,8 Z M7,8" id="Rectangle 3" fill="#FFFFFF"></path>
        </g>
    </g>
</svg>