<?xml version="1.0" encoding="UTF-8" standalone="no"?>
<svg width="20px" height="20px" viewBox="0 0 20 20" version="1.1" xmlns="http://www.w3.org/2000/svg" xmlns:xlink="http://www.w3.org/1999/xlink" xmlns:sketch="http://www.bohemiancoding.com/sketch/ns">
    <title>binding</title>
    <description>Created with Sketch (http://www.bohemiancoding.com/sketch)</description>
    <defs></defs>
    <g id="Page 1" stroke="none" stroke-width="1" fill="none" fill-rule="evenodd">
        <g id="Binding" transform="translate(0.000000, 6.000000)" fill="#FFFFFF">
            <path d="M4,8 C1.79086089,8 0,6.20913911 0,4 C0,1.79086089 1.79086089,0 4,0 C6.20913911,0 8,1.79086089 8,4 C8,6.20913911 6.20913911,8 4,8 Z M4,6 C5.10456955,6 6,5.10456955 6,4 C6,2.89543045 5.10456955,2 4,2 C2.89543045,2 2,2.89543045 2,4 C2,5.10456955 2.89543045,6 4,6 Z M4,6" id="Oval 1"></path>
            <path d="M16,8 C13.7908609,8 12,6.20913911 12,4 C12,1.79086089 13.7908609,0 16,0 C18.2091391,0 20,1.79086089 20,4 C20,6.20913911 18.2091391,8 16,8 Z M16,6 C17.1045696,6 18,5.10456955 18,4 C18,2.89543045 17.1045696,2 16,2 C14.8954304,2 14,2.89543045 14,4 C14,5.10456955 14.8954304,6 16,6 Z M16,6" id="Oval 1 copy"></path>
            <path d="M7,3 L7,5 L13,5 L13,3 L7,3 Z M7,3" id="Rectangle 3"></path>
        </g>
    </g>
</svg>