<?xml version="1.0" encoding="UTF-8" standalone="no"?>
<svg width="14px" height="14px" viewBox="0 0 14 14" version="1.1" xmlns="http://www.w3.org/2000/svg" xmlns:xlink="http://www.w3.org/1999/xlink" xmlns:sketch="http://www.bohemiancoding.com/sketch/ns">
    <title>icon</title>
    <description>Created with Sketch (http://www.bohemiancoding.com/sketch)</description>
    <defs></defs>
    <g id="Page 1" fill="#D8D8D8" fill-rule="evenodd">
        <path d="M1.00684547,5 L12.9931545,5 C13.5500512,5 13.9442018,5.4463856 13.8753712,5.99703014 L13.1246288,12.0029699 C13.0566295,12.5469637 12.5511774,13 11.9975267,13 L2.00247329,13 C1.45576096,13 0.9442018,12.5536144 0.875371233,12.0029699 L0.124628767,5.99703014 C0.0566295385,5.45303631 0.450780073,5 1.00684547,5 Z M1.99077797,1 L6.00922203,1 C6.54902482,1 7,1.44724809 7,1.99895656 L7,2 L11.0026083,2 C12.1041422,2 13,2.8954305 13,4 L7,4 L4,4 L1,4 L1,1.99895656 C1,1.44266033 1.44358641,1 1.99077797,1 Z M1.99077797,1" id="Folder" fill="#676767"></path>
    </g>
</svg>