<?xml version="1.0" encoding="UTF-8" standalone="no"?>
<svg width="100px" height="100px" viewBox="0 0 100 100" version="1.1" xmlns="http://www.w3.org/2000/svg" xmlns:xlink="http://www.w3.org/1999/xlink" xmlns:sketch="http://www.bohemiancoding.com/sketch/ns">
    <title>Slice 1</title>
    <description>Created with Sketch (http://www.bohemiancoding.com/sketch)</description>
    <defs></defs>
    <g id="Page 1" fill="#D8D8D8" fill-rule="evenodd">
        <path d="M19.0001757,7 L38.9998243,7 C42.3130221,7 45.5276312,9.6381561 46.1784973,12.8924866 L47.6,20 L84.9986681,20 C87.7662434,20 90,22.2359262 90,24.9940809 C90,26.1134452 89.1076005,27 88.0067699,27 L43.0007795,27 L29.0013319,27 L10.9972916,27 C9.89153983,27 9.17497601,26.12512 9.39081985,25.0459008 L11.8215027,12.8924866 C12.4729566,9.63521697 15.6863701,7 19.0001757,7 Z M5.99306484,33 L94.0069352,33 C97.312319,33 99.6451239,35.6615708 99.207362,38.9447848 L92.792638,87.0552152 C92.3540725,90.3444566 89.3104122,93 85.9926375,93 L14.0073625,93 C10.6879063,93 7.64512389,90.3384292 7.20736202,87.0552152 L0.792637976,38.9447848 C0.354072452,35.6555434 2.68318653,33 5.99306484,33 Z M5.99306484,33" id="Rectangle 4" fill="#000000"></path>
    </g>
</svg>