<?xml version="1.0" encoding="utf-8"?>
<!-- Generator: Adobe Illustrator 15.0.2, SVG Export Plug-In . SVG Version: 6.00 Build 0)  -->
<!DOCTYPE svg PUBLIC "-//W3C//DTD SVG 1.1//EN" "http://www.w3.org/Graphics/SVG/1.1/DTD/svg11.dtd">
<svg version="1.1" id="Layer_1" xmlns="http://www.w3.org/2000/svg" xmlns:xlink="http://www.w3.org/1999/xlink" x="0px" y="0px"
	 width="100px" height="100px" viewBox="0 0 100 100" enable-background="new 0 0 100 100" xml:space="preserve">
<g>
	<path fill="#010101" d="M95.541,35.474H4.842c-4.604,0-4.834,2.241-4.584,4.979l4.127,45.041c0.25,2.738,0.898,4.979,5.496,4.979
		h80.621c4.688,0,5.244-2.241,5.494-4.979l4.127-45.041C100.373,37.715,100.145,35.474,95.541,35.474z M92.213,24.474
		c-0.555-2.2-3.275-4-6.047-4H52.094c-2.771,0-6.645-1.588-8.607-3.528l-2.979-2.943c-1.963-1.94-5.836-3.528-8.607-3.528H15.621
		c-2.771,0-5.289,2.236-5.594,4.97l-1.461,13.03h84.654L92.213,24.474z"/>
</g>
</svg>
