<?xml version="1.0" encoding="utf-8"?>
<!-- Generator: Adobe Illustrator 15.0.2, SVG Export Plug-In . SVG Version: 6.00 Build 0)  -->
<!DOCTYPE svg PUBLIC "-//W3C//DTD SVG 1.1//EN" "http://www.w3.org/Graphics/SVG/1.1/DTD/svg11.dtd">
<svg version="1.1" id="Layer_1" xmlns="http://www.w3.org/2000/svg" xmlns:xlink="http://www.w3.org/1999/xlink" x="0px" y="0px"
	 width="100px" height="100px" viewBox="0 0 100 100" enable-background="new 0 0 100 100" xml:space="preserve">
<g>
	<path fill="#010101" d="M85.815,33.83L75.588,5.654c-0.756-2.08-2.972-3.182-4.945-2.461L2.655,28.004
		c-1.976,0.721-2.966,2.992-2.211,5.072l10.784,29.709V46.859c0-7.184,5.744-13.029,12.804-13.029h17.964l21.426-15.039L75.82,33.83
		H85.815z M96.383,42.85H24.032c-2.103,0-3.808,1.797-3.808,4.01v47.105c0,2.213,1.705,4.008,3.808,4.008h72.351
		c2.104,0,3.809-1.795,3.809-4.008V46.859C100.191,44.646,98.486,42.85,96.383,42.85z M90.861,87.951H30.888v-8.592l9.227-21.475
		l13.841,17.182l12.984-13.311l16.694-6.023l7.228,16.109V87.951z"/>
</g>
</svg>
