<?xml version="1.0" encoding="UTF-8" standalone="no"?>
<svg width="16px" height="16px" viewBox="0 0 16 16" version="1.1" xmlns="http://www.w3.org/2000/svg" xmlns:xlink="http://www.w3.org/1999/xlink" xmlns:sketch="http://www.bohemiancoding.com/sketch/ns">
    <!-- Generator: Sketch 3.0.1 (7597) - http://www.bohemiancoding.com/sketch -->
    <title>icon</title>
    <description>Created with Sketch.</description>
    <defs></defs>
    <g id="Page-1" stroke="none" stroke-width="1" fill="none" fill-rule="evenodd" sketch:type="MSPage">
        <g id="Sign-out" sketch:type="MSLayerGroup" transform="translate(8.000000, 8.500000) rotate(-270.000000) translate(-8.000000, -8.500000) " fill="#7F7F7F">
            <path d="M0.500871658,8.5 C-0.0518944951,8.5 -0.5,8.95303631 -0.5,9.49703014 L-0.5,15.5029699 C-0.5,16.0536144 -0.0553691387,16.5 0.500871658,16.5 L14.4991283,16.5 C15.0518945,16.5 15.5,16.0469637 15.5,15.5029699 L15.5,9.49703014 C15.5,8.9463856 15.0553691,8.5 14.4991283,8.5 L0.500871658,8.5 Z M2.5,8.5 L2.5,13.5 L12.5,13.5 L12.5,8.5 L2.5,8.5 Z" id="Door" sketch:type="MSShapeGroup"></path>
            <g id="Arrow" transform="translate(3.000000, 0.000000)" sketch:type="MSShapeGroup">
                <rect id="Rectangle-6" x="3.5" y="5.5" width="2" height="4"></rect>
                <polygon id="Triangle-1" points="4.5 0.5 8.5 5.5 0.5 5.5 "></polygon>
            </g>
        </g>
    </g>
</svg>