<?xml version="1.0" encoding="UTF-8" standalone="no"?>
<svg width="100px" height="100px" viewBox="0 0 100 100" version="1.1" xmlns="http://www.w3.org/2000/svg" xmlns:xlink="http://www.w3.org/1999/xlink" xmlns:sketch="http://www.bohemiancoding.com/sketch/ns">
    <title>icon</title>
    <description>Created with Sketch (http://www.bohemiancoding.com/sketch)</description>
    <defs></defs>
    <g id="Page 1" fill="#D8D8D8" fill-rule="evenodd">
        <path d="M12.9900874,41 L87.0099126,41 C88.6616553,41 90,42.3415933 90,43.9965324 L90,84.9936839 C90,88.3117828 87.3152154,91 84.0033657,91 L15.9966343,91 C12.6846188,91 10,88.3108807 10,84.9936839 L10,43.9965324 C10,42.3373792 11.3387077,41 12.9900874,41 Z M36,52 L36,66 L64,66 L64,52 Z M5.99473221,14 C4.34078728,14 3,15.343312 3,16.9942021 L3,31.0057979 C3,32.6594501 4.34687322,34 5.99473221,34 L94.0052678,34 C95.6592127,34 97,32.656688 97,31.0057979 L97,16.9942021 C97,15.3405499 95.6531268,14 94.0052678,14 L5.99473221,14 Z M5.99473221,14" id="Rectangle 8" fill="#000000"></path>
    </g>
</svg>