<?xml version="1.0" encoding="UTF-8" standalone="no"?>
<svg width="14px" height="14px" viewBox="0 0 14 14" version="1.1" xmlns="http://www.w3.org/2000/svg" xmlns:xlink="http://www.w3.org/1999/xlink" xmlns:sketch="http://www.bohemiancoding.com/sketch/ns">
    <title>icon</title>
    <description>Created with Sketch (http://www.bohemiancoding.com/sketch)</description>
    <defs></defs>
    <g id="Page 1" fill="#D8D8D8" fill-rule="evenodd">
        <path d="M1,5 L13,5 L13,12.0029699 C13,12.5469637 12.5511774,13 11.9975267,13 L2.00247329,13 C1.45576096,13 1,12.5536144 1,12.0029699 Z M5,8 L5,10 L9,10 L9,8 Z M1.00684547,1 C0.450780073,1 0,1.44266033 0,1.99895656 L0,4 C0,4 0,4 0,4 L14,4 C14,4 14,4 14,4 L14,1.99895656 C14,1.44724809 13.5500512,1 12.9931545,1 L1.00684547,1 Z M1.00684547,1" id="Package" fill="#666666"></path>
    </g>
</svg>