<?xml version="1.0" encoding="UTF-8" standalone="no"?>
<svg width="14px" height="14px" viewBox="0 0 14 14" version="1.1" xmlns="http://www.w3.org/2000/svg" xmlns:xlink="http://www.w3.org/1999/xlink" xmlns:sketch="http://www.bohemiancoding.com/sketch/ns">
    <title>icon</title>
    <description>Created with Sketch (http://www.bohemiancoding.com/sketch)</description>
    <defs>
        <linearGradient x1="50%" y1="0%" x2="50%" y2="100%" id="linearGradient-1">
            <stop stop-color="#B3B3B3" offset="0%"></stop>
            <stop stop-color="#666666" offset="100%"></stop>
        </linearGradient>
    </defs>
    <g id="Page 1" fill="#D8D8D8" fill-rule="evenodd">
        <path d="M6.99969565,0 C3.13386957,0 0,3.13402174 0,7 C0,10.8661304 3.13386957,14 6.99969565,14 C10.8658261,14 14,10.8661304 14,7 C14,3.13402174 10.8659783,0 6.99969565,0 L6.99969565,0 Z M7,9.28276087 C5.73954348,9.28276087 4.7173913,8.2606087 4.7173913,7.00015217 C4.7173913,5.73969565 5.73954348,4.71754348 7,4.71754348 C8.26045652,4.71754348 9.2826087,5.73969565 9.2826087,7.00015217 C9.2826087,8.2606087 8.2606087,9.28276087 7,9.28276087 L7,9.28276087 Z M7,9.28276087" id="Reel" fill="url(#linearGradient-1)"></path>
    </g>
</svg>